<?xml version="1.0" encoding="utf-8"?>
<!-- Generator: Adobe Illustrator 26.5.0, SVG Export Plug-In . SVG Version: 6.00 Build 0)  -->
<svg version="1.1" id="Layer_1" xmlns="http://www.w3.org/2000/svg" xmlns:xlink="http://www.w3.org/1999/xlink" x="0px" y="0px"
	 viewBox="0 0 263.41 103.07" style="enable-background:new 0 0 263.41 103.07;" xml:space="preserve">
<style type="text/css">
	.st0{fill:#FFFFFF;stroke:#000000;stroke-width:5.6693;stroke-miterlimit:10;}
	.st1{fill:#FFFFFF;}
	.st2{fill:none;stroke:#000000;stroke-width:5.6693;stroke-miterlimit:10;}
	.st3{fill:none;stroke:#000000;stroke-width:2.8346;stroke-miterlimit:10;}
	.st4{fill:#CBCCCC;}
	.st5{fill:#FFFFFF;stroke:#000000;stroke-width:2.8346;stroke-miterlimit:10;}
	.st6{fill:#744C9E;}
	.st7{fill:#744C9E;stroke:#000000;stroke-width:1.4173;stroke-linecap:round;stroke-miterlimit:10;}
</style>
<path d="M36.5,20.43v17.79h7.46V20.14h7.46v31.67h-7.46v-6.04H36.5v4.67H29v-30H36.5z"/>
<path d="M66.43,35.35l-7.11-0.06v3.87h4.38v5.4h-4.38v2.04h6.93v5.37H53.89V29.92l12.54,0.09V35.35z"/>
<path d="M82.36,45.58l0.3,5.4c-4.17,0.27-6.84-1.17-8.46-2.76v2.82h-5.46V28.57c6.06-0.15,13.86-0.15,14.1,7.89
	c0.12,3.39-1.86,6.39-4.83,8.01C78.82,45.16,80.17,45.73,82.36,45.58z M74.2,40.3c3.96-1.23,4.77-5.82,0-6.42V40.3z"/>
<path d="M97.39,35.35l-7.11-0.06v3.87h4.38v5.4h-4.38v2.04h6.93v5.37H84.85V29.92l12.54,0.09V35.35z"/>
<path d="M105.07,30.73v21.06h-5.4V30.73H105.07z"/>
<path d="M117.55,36.25c0,0-0.57-1.17-2.58-1.17c-0.87,0-2.1,0.75-0.3,1.41c0.36,0.15,0.72,0.27,1.05,0.45
	c1.65,0.72,3.54,1.8,4.71,3.33c3.66,4.8,0.36,11.31-5.1,11.82c-1.23,0.12-2.49-0.03-3.69-0.54c-1.98-0.78-3.63-2.43-4.38-5.01
	l5.13-1.71c0.36,1.17,1.41,1.65,2.46,1.56c0.66-0.03,1.5-0.39,1.59-1.2c0.09-1.53-1.62-2.49-2.79-3c-0.3-0.12-0.54-0.21-0.78-0.3
	c-8.1-3.12-4.68-12.45,2.1-12.51c5.13-0.06,7.23,4.02,7.26,4.02L117.55,36.25z"/>
<path d="M128.86,27.34l3.48,11.64l3.3-9.39l3.96-0.24l2.52,9.24l2.52-9.87l5.22,1.35l-5.61,21.51h-4.56l-2.22-10.98l-2.79,10.98
	h-4.23l-6.78-22.74L128.86,27.34z"/>
<path d="M157.12,30.73v21.06h-5.4V30.73H157.12z"/>
<path d="M165.01,29.35v17.1h5.22v5.37h-10.62V29.35H165.01z"/>
<path d="M177.91,29.35v17.1h5.22v5.37h-10.62V29.35H177.91z"/>
<path d="M190.84,28.81c6.27-0.21,11.82,4.62,7.14,9.78c1.56,1.2,2.46,2.88,2.58,4.86c0.3,5.55-5.4,8.16-10.29,8.04l-4.86-0.06V28.75
	L190.84,28.81z M190.78,36.76c3.6,0.3,5.07-2.82,0.06-2.55L190.78,36.76z M190.84,46.12c5.73-0.12,5.76-4.74,0-3.96V46.12z"/>
<path d="M220.27,28.01l-9.88-0.08v5.38h6.08v7.5h-6.08v2.83h9.63v7.46h-17.17V20.46l17.42,0.12V28.01z"/>
<path d="M21.33,56.4v23.33h-7.46V56.36L7.5,56.32l0.04-7.5l19.17,0.08l-0.04,7.54L21.33,56.4z"/>
<path d="M32.11,58.01v12.81h5.37V57.8h5.37v22.8h-5.37v-4.35h-5.37v3.36h-5.4v-21.6H32.11z"/>
<path d="M58.24,63.35l-7.11-0.06v3.87h4.38v5.4h-4.38v2.04h6.93v5.37H45.7V57.92l12.54,0.09V63.35z"/>
<path d="M83.64,64.04l-0.09-0.09c-0.87-0.69-1.92-0.96-3-0.87c-3.15,0.21-4.53,3.48-4.44,6.27c0.06,1.59,0.48,3.09,1.41,4.08
	c1.77,1.92,5.07,1.41,6.09-0.9l-3.57,0.15l-0.12-5.4l9.21-0.27v2.7c0.09,5.31-2.49,9.9-8.25,10.05c-6.09,0.18-9.96-4.41-10.14-10.23
	c-0.18-5.76,3.27-11.34,9.36-11.85c2.4-0.18,4.89,0.54,6.81,2.1c0.09,0.06,0.18,0.12,0.24,0.21L83.64,64.04z"/>
<path d="M90.57,78.62l5.97-21.87h7.38l4.5,21.3l-5.22,1.08l-0.75-3.36h-5.52l-1.17,4.26L90.57,78.62z M101.31,70.37l-1.29-6.09
	l-1.65,6.09H101.31z"/>
<path d="M109.5,78.92l1.35-21.84l6.09,0.15l3.9,11.91l3.48-11.97l5.79-0.51l1.5,21.84l-5.4,0.36l-0.45-7.26l-3.03,7.47l-3.54,0.06
	l-3.75-9.06l-0.54,9.15L109.5,78.92z"/>
<path d="M146.49,63.35l-7.11-0.06v3.87h4.38v5.4h-4.38v2.04h6.93v5.37h-12.36V57.92l12.54,0.09V63.35z"/>
<path d="M165.1,57.35v17.1h5.22v5.37h-10.62V57.35H165.1z"/>
<path d="M190.06,60.41c1.77,2.04,2.85,4.77,2.85,7.83c0,3-1.08,5.79-2.85,7.77c-1.89,2.13-4.5,3.45-7.41,3.45
	c-2.88,0-5.46-1.32-7.35-3.45c-1.77-1.98-2.91-4.77-2.91-7.77c0-3.06,1.14-5.79,2.91-7.83c1.89-2.13,4.47-3.42,7.35-3.42
	C185.57,56.99,188.18,58.28,190.06,60.41z M182.66,62.42c-1.26,0-2.46,0.6-3.3,1.56c-0.96,1.08-1.53,2.58-1.53,4.26
	c0,1.65,0.57,3.12,1.53,4.2c0.84,0.99,2.04,1.59,3.3,1.59c1.32,0,2.46-0.6,3.36-1.59c0.93-1.08,1.5-2.55,1.5-4.2
	c0-1.68-0.57-3.18-1.5-4.26C185.12,63.02,183.98,62.42,182.66,62.42z"/>
<path d="M207.98,64.04l-0.09-0.09c-0.87-0.69-1.92-0.96-3-0.87c-3.15,0.21-4.53,3.48-4.44,6.27c0.06,1.59,0.48,3.09,1.41,4.08
	c1.77,1.92,5.07,1.41,6.09-0.9l-3.57,0.15l-0.12-5.4l9.21-0.27v2.7c0.09,5.31-2.49,9.9-8.25,10.05c-6.09,0.18-9.96-4.41-10.14-10.23
	c-0.18-5.76,3.27-11.34,9.36-11.85c2.4-0.18,4.89,0.54,6.81,2.1c0.09,0.06,0.18,0.12,0.24,0.21L207.98,64.04z"/>
<path d="M240.16,56.47c2.46,2.83,3.96,6.62,3.96,10.88c0,4.17-1.5,8.04-3.96,10.79c-2.62,2.96-6.25,4.79-10.29,4.79
	c-4,0-7.58-1.83-10.21-4.79c-2.46-2.75-4.04-6.62-4.04-10.79c0-4.25,1.58-8.04,4.04-10.88c2.62-2.96,6.21-4.75,10.21-4.75
	C233.91,51.72,237.54,53.51,240.16,56.47z M229.87,59.26c-1.75,0-3.42,0.83-4.58,2.17c-1.33,1.5-2.13,3.58-2.13,5.92
	c0,2.29,0.79,4.33,2.13,5.83c1.17,1.38,2.83,2.21,4.58,2.21c1.83,0,3.42-0.83,4.67-2.21c1.29-1.5,2.08-3.54,2.08-5.83
	c0-2.33-0.79-4.42-2.08-5.92C233.29,60.09,231.7,59.26,229.87,59.26z"/>
</svg>
